<svg xmlns="http://www.w3.org/2000/svg" width="1440" height="900"><path d="M751,510L794,567L868,484Z" fill="#569ecd" stroke="#569ecd" stroke-width="1.51"/><path d="M868,484L767,426L751,510Z" fill="#5fa5d1" stroke="#5fa5d1" stroke-width="1.51"/><path d="M794,567L884,588L868,484Z" fill="#4c98c9" stroke="#4c98c9" stroke-width="1.51"/><path d="M751,510L675,530L794,567Z" fill="#5aa2cf" stroke="#5aa2cf" stroke-width="1.51"/><path d="M698,414L675,530L751,510Z" fill="#67aad4" stroke="#67aad4" stroke-width="1.51"/><path d="M884,588L940,565L868,484Z" fill="#4694c7" stroke="#4694c7" stroke-width="1.51"/><path d="M767,426L698,414L751,510Z" fill="#69acd5" stroke="#69acd5" stroke-width="1.51"/><path d="M940,565L958,537L868,484Z" fill="#4794c7" stroke="#4794c7" stroke-width="1.51"/><path d="M868,484L883,366L767,426Z" fill="#65a7d2" stroke="#65a7d2" stroke-width="1.51"/><path d="M767,426L750,270L698,414Z" fill="#7cb6d9" stroke="#7cb6d9" stroke-width="1.51"/><path d="M972,430L883,366L868,484Z" fill="#5da2cf" stroke="#5da2cf" stroke-width="1.51"/><path d="M794,567L791,675L884,588Z" fill="#4691c6" stroke="#4691c6" stroke-width="1.51"/><path d="M884,588L906,711L940,565Z" fill="#3a88c1" stroke="#3a88c1" stroke-width="1.51"/><path d="M640,596L791,675L794,567Z" fill="#5097c9" stroke="#5097c9" stroke-width="1.51"/><path d="M958,537L972,430L868,484Z" fill="#5099ca" stroke="#5099ca" stroke-width="1.51"/><path d="M675,530L640,596L794,567Z" fill="#5ba1cf" stroke="#5ba1cf" stroke-width="1.51"/><path d="M581,606L640,596L546,522Z" fill="#6ca8d1" stroke="#6ca8d1" stroke-width="1.51"/><path d="M883,366L872,311L767,426Z" fill="#73aed5" stroke="#73aed5" stroke-width="1.51"/><path d="M980,323L872,311L883,366Z" fill="#75add4" stroke="#75add4" stroke-width="1.51"/><path d="M791,675L906,711L884,588Z" fill="#3b87c1" stroke="#3b87c1" stroke-width="1.51"/><path d="M940,565L1076,565L958,537Z" fill="#3c8ac2" stroke="#3c8ac2" stroke-width="1.51"/><path d="M640,596L652,683L791,675Z" fill="#5394c9" stroke="#5394c9" stroke-width="1.51"/><path d="M791,675L768,784L906,711Z" fill="#3c80bb" stroke="#3c80bb" stroke-width="1.51"/><path d="M872,311L750,270L767,426Z" fill="#7fb6d8" stroke="#7fb6d8" stroke-width="1.51"/><path d="M972,430L980,323L883,366Z" fill="#69a5d0" stroke="#69a5d0" stroke-width="1.51"/><path d="M872,311L879,222L750,270Z" fill="#88b8db" stroke="#88b8db" stroke-width="1.51"/><path d="M640,596L581,606L652,683Z" fill="#619dcc" stroke="#619dcc" stroke-width="1.51"/><path d="M546,522L640,596L675,530Z" fill="#6aa9d2" stroke="#6aa9d2" stroke-width="1.51"/><path d="M546,522L675,530L570,379Z" fill="#79b4d8" stroke="#79b4d8" stroke-width="1.51"/><path d="M906,711L965,718L940,565Z" fill="#317fbd" stroke="#317fbd" stroke-width="1.51"/><path d="M958,537L1094,510L972,430Z" fill="#4990c6" stroke="#4990c6" stroke-width="1.51"/><path d="M972,430L1099,433L980,323Z" fill="#5f9bcb" stroke="#5f9bcb" stroke-width="1.51"/><path d="M984,801L965,718L906,711Z" fill="#2a72b3" stroke="#2a72b3" stroke-width="1.51"/><path d="M570,379L675,530L698,414Z" fill="#78b4d9" stroke="#78b4d9" stroke-width="1.51"/><path d="M1059,683L1076,565L940,565Z" fill="#3280bd" stroke="#3280bd" stroke-width="1.51"/><path d="M602,294L570,379L698,414Z" fill="#8dc0de" stroke="#8dc0de" stroke-width="1.51"/><path d="M750,270L679,265L698,414Z" fill="#8bbede" stroke="#8bbede" stroke-width="1.51"/><path d="M652,683L768,784L791,675Z" fill="#4788c0" stroke="#4788c0" stroke-width="1.51"/><path d="M1076,565L1094,510L958,537Z" fill="#3c88c2" stroke="#3c88c2" stroke-width="1.51"/><path d="M581,606L592,693L652,683Z" fill="#6099ca" stroke="#6099ca" stroke-width="1.51"/><path d="M652,683L690,790L768,784Z" fill="#4a85bd" stroke="#4a85bd" stroke-width="1.51"/><path d="M493,704L592,693L581,606Z" fill="#689ccb" stroke="#689ccb" stroke-width="1.51"/><path d="M980,323L879,222L872,311Z" fill="#7eb0d6" stroke="#7eb0d6" stroke-width="1.51"/><path d="M750,270L643,195L679,265Z" fill="#9cc5e3" stroke="#9cc5e3" stroke-width="1.51"/><path d="M1094,510L1099,433L972,430Z" fill="#4c90c6" stroke="#4c90c6" stroke-width="1.51"/><path d="M980,323L935,195L879,222Z" fill="#84b1d8" stroke="#84b1d8" stroke-width="1.51"/><path d="M679,265L602,294L698,414Z" fill="#90c1df" stroke="#90c1df" stroke-width="1.51"/><path d="M965,718L1059,683L940,565Z" fill="#2e7cbb" stroke="#2e7cbb" stroke-width="1.51"/><path d="M1076,565L1192,520L1094,510Z" fill="#3982bc" stroke="#3982bc" stroke-width="1.51"/><path d="M592,693L690,790L652,683Z" fill="#568dc2" stroke="#568dc2" stroke-width="1.51"/><path d="M879,222L795,189L750,270Z" fill="#92bddf" stroke="#92bddf" stroke-width="1.51"/><path d="M679,265L643,195L602,294Z" fill="#a0c8e3" stroke="#a0c8e3" stroke-width="1.51"/><path d="M1099,433L1078,307L980,323Z" fill="#679dcc" stroke="#679dcc" stroke-width="1.51"/><path d="M1078,307L935,195L980,323Z" fill="#7ba8d3" stroke="#7ba8d3" stroke-width="1.51"/><path d="M890,73L777,98L795,189Z" fill="#9dc3e2" stroke="#9dc3e2" stroke-width="1.51"/><path d="M768,784L896,836L906,711Z" fill="#3476b4" stroke="#3476b4" stroke-width="1.51"/><path d="M965,718L1071,788L1059,683Z" fill="#236db1" stroke="#236db1" stroke-width="1.51"/><path d="M874,923L896,836L768,784Z" fill="#326ba5" stroke="#326ba5" stroke-width="1.51"/><path d="M896,836L984,801L906,711Z" fill="#2a6fb0" stroke="#2a6fb0" stroke-width="1.51"/><path d="M546,522L479,605L581,606Z" fill="#73abd3" stroke="#73abd3" stroke-width="1.51"/><path d="M592,693L535,801L690,790Z" fill="#5a8abf" stroke="#5a8abf" stroke-width="1.51"/><path d="M441,487L479,605L546,522Z" fill="#7fb3d7" stroke="#7fb3d7" stroke-width="1.51"/><path d="M441,487L546,522L570,379Z" fill="#86bbdc" stroke="#86bbdc" stroke-width="1.51"/><path d="M795,189L643,195L750,270Z" fill="#9bc4e2" stroke="#9bc4e2" stroke-width="1.51"/><path d="M1094,510L1192,520L1099,433Z" fill="#4286bf" stroke="#4286bf" stroke-width="1.51"/><path d="M1210,395L1155,279L1078,307Z" fill="#6997c7" stroke="#6997c7" stroke-width="1.51"/><path d="M1059,683L1152,620L1076,565Z" fill="#2977b8" stroke="#2977b8" stroke-width="1.51"/><path d="M1171,715L1152,620L1059,683Z" fill="#1f6db1" stroke="#1f6db1" stroke-width="1.51"/><path d="M454,373L570,379L471,264Z" fill="#a3cce2" stroke="#a3cce2" stroke-width="1.51"/><path d="M454,373L441,487L570,379Z" fill="#94c3e0" stroke="#94c3e0" stroke-width="1.51"/><path d="M479,605L493,704L581,606Z" fill="#70a3cf" stroke="#70a3cf" stroke-width="1.51"/><path d="M369,630L493,704L479,605Z" fill="#78a5d1" stroke="#78a5d1" stroke-width="1.51"/><path d="M643,195L596,201L602,294Z" fill="#a8cce5" stroke="#a8cce5" stroke-width="1.51"/><path d="M1152,620L1192,520L1076,565Z" fill="#317bb9" stroke="#317bb9" stroke-width="1.51"/><path d="M984,801L1071,788L965,718Z" fill="#226aae" stroke="#226aae" stroke-width="1.51"/><path d="M1038,874L1071,788L984,801Z" fill="#1e60a3" stroke="#1e60a3" stroke-width="1.51"/><path d="M471,264L570,379L602,294Z" fill="#a2cbe2" stroke="#a2cbe2" stroke-width="1.51"/><path d="M750,928L874,923L768,784Z" fill="#376aa1" stroke="#376aa1" stroke-width="1.51"/><path d="M493,704L535,801L592,693Z" fill="#6693c5" stroke="#6693c5" stroke-width="1.51"/><path d="M795,189L696,119L643,195Z" fill="#a2c9e5" stroke="#a2c9e5" stroke-width="1.51"/><path d="M643,195L543,126L596,201Z" fill="#b1d2e8" stroke="#b1d2e8" stroke-width="1.51"/><path d="M777,98L696,119L795,189Z" fill="#a1c8e4" stroke="#a1c8e4" stroke-width="1.51"/><path d="M874,923L1006,870L896,836Z" fill="#27609c" stroke="#27609c" stroke-width="1.51"/><path d="M896,836L1006,870L984,801Z" fill="#2564a3" stroke="#2564a3" stroke-width="1.51"/><path d="M890,73L795,189L879,222Z" fill="#96bedf" stroke="#96bedf" stroke-width="1.51"/><path d="M1060,129L974,130L935,195Z" fill="#8eb1d9" stroke="#8eb1d9" stroke-width="1.51"/><path d="M890,73L879,222L935,195Z" fill="#91badd" stroke="#91badd" stroke-width="1.51"/><path d="M1078,307L1105,172L935,195Z" fill="#82a8d4" stroke="#82a8d4" stroke-width="1.51"/><path d="M1210,395L1078,307L1099,433Z" fill="#5d93c6" stroke="#5d93c6" stroke-width="1.51"/><path d="M1192,520L1210,395L1099,433Z" fill="#4886bf" stroke="#4886bf" stroke-width="1.51"/><path d="M1163,779L1171,715L1071,788Z" fill="#165fa7" stroke="#165fa7" stroke-width="1.51"/><path d="M1071,788L1171,715L1059,683Z" fill="#1b67ad" stroke="#1b67ad" stroke-width="1.51"/><path d="M1152,620L1268,572L1192,520Z" fill="#2d75b4" stroke="#2d75b4" stroke-width="1.51"/><path d="M1192,520L1287,493L1210,395Z" fill="#427eb9" stroke="#427eb9" stroke-width="1.51"/><path d="M750,928L768,784L690,790Z" fill="#4175ad" stroke="#4175ad" stroke-width="1.51"/><path d="M503,191L602,294L596,201Z" fill="#aed0e7" stroke="#aed0e7" stroke-width="1.51"/><path d="M503,191L471,264L602,294Z" fill="#afd1e7" stroke="#afd1e7" stroke-width="1.51"/><path d="M632,931L750,928L690,790Z" fill="#4571a4" stroke="#4571a4" stroke-width="1.51"/><path d="M1006,870L1038,874L984,801Z" fill="#1f5e9e" stroke="#1f5e9e" stroke-width="1.51"/><path d="M951,998L1038,874L1006,870Z" fill="#1f5793" stroke="#1f5793" stroke-width="1.51"/><path d="M441,487L369,630L479,605Z" fill="#81b1d7" stroke="#81b1d7" stroke-width="1.51"/><path d="M454,373L391,390L441,487Z" fill="#9ac5e2" stroke="#9ac5e2" stroke-width="1.51"/><path d="M385,313L391,390L454,373Z" fill="#a8cde5" stroke="#a8cde5" stroke-width="1.51"/><path d="M974,130L890,73L935,195Z" fill="#93b9dd" stroke="#93b9dd" stroke-width="1.51"/><path d="M1188,903L1163,779L1071,788Z" fill="#13569c" stroke="#13569c" stroke-width="1.51"/><path d="M543,126L503,191L596,201Z" fill="#b7d5ea" stroke="#b7d5ea" stroke-width="1.51"/><path d="M471,264L385,313L454,373Z" fill="#aed0e6" stroke="#aed0e6" stroke-width="1.51"/><path d="M974,130L1000,23L890,73Z" fill="#98bade" stroke="#98bade" stroke-width="1.51"/><path d="M1155,279L1105,172L1078,307Z" fill="#799fce" stroke="#799fce" stroke-width="1.51"/><path d="M1136,178L1105,172L1155,279Z" fill="#7fa0cf" stroke="#7fa0cf" stroke-width="1.51"/><path d="M1105,172L1060,129L935,195Z" fill="#89acd6" stroke="#89acd6" stroke-width="1.51"/><path d="M535,801L632,931L690,790Z" fill="#537daf" stroke="#537daf" stroke-width="1.51"/><path d="M334,503L369,630L441,487Z" fill="#8bb8db" stroke="#8bb8db" stroke-width="1.51"/><path d="M493,704L453,819L535,801Z" fill="#698fc2" stroke="#698fc2" stroke-width="1.51"/><path d="M535,801L582,936L632,931Z" fill="#5577a6" stroke="#5577a6" stroke-width="1.51"/><path d="M1303,727L1268,572L1171,715Z" fill="#1862aa" stroke="#1862aa" stroke-width="1.51"/><path d="M1171,715L1268,572L1152,620Z" fill="#226cb0" stroke="#226cb0" stroke-width="1.51"/><path d="M1105,172L1172,123L1060,129Z" fill="#88a6d3" stroke="#88a6d3" stroke-width="1.51"/><path d="M1172,123L1136,178L1285,221Z" fill="#809ccc" stroke="#809ccc" stroke-width="1.51"/><path d="M684,11L696,119L777,98Z" fill="#accfe8" stroke="#accfe8" stroke-width="1.51"/><path d="M555,13L543,126L696,119Z" fill="#bad8eb" stroke="#bad8eb" stroke-width="1.51"/><path d="M696,119L543,126L643,195Z" fill="#b0d1e8" stroke="#b0d1e8" stroke-width="1.51"/><path d="M362,234L471,264L503,191Z" fill="#bcd7eb" stroke="#bcd7eb" stroke-width="1.51"/><path d="M362,234L385,313L471,264Z" fill="#b9d5ea" stroke="#b9d5ea" stroke-width="1.51"/><path d="M391,390L334,503L441,487Z" fill="#96c1e1" stroke="#96c1e1" stroke-width="1.51"/><path d="M395,738L453,819L493,704Z" fill="#7094c5" stroke="#7094c5" stroke-width="1.51"/><path d="M1210,395L1311,320L1155,279Z" fill="#658fc2" stroke="#658fc2" stroke-width="1.51"/><path d="M1268,572L1287,493L1192,520Z" fill="#3576b4" stroke="#3576b4" stroke-width="1.51"/><path d="M369,630L395,738L493,704Z" fill="#779fce" stroke="#779fce" stroke-width="1.51"/><path d="M282,417L334,503L391,390Z" fill="#9fc7e4" stroke="#9fc7e4" stroke-width="1.51"/><path d="M331,828L453,819L395,738Z" fill="#7490c2" stroke="#7490c2" stroke-width="1.51"/><path d="M1287,493L1282,393L1210,395Z" fill="#4b81ba" stroke="#4b81ba" stroke-width="1.51"/><path d="M472,883L582,936L535,801Z" fill="#5d7dab" stroke="#5d7dab" stroke-width="1.51"/><path d="M632,931L653,983L750,928Z" fill="#466ea1" stroke="#466ea1" stroke-width="1.51"/><path d="M750,928L857,1008L874,923Z" fill="#33649a" stroke="#33649a" stroke-width="1.51"/><path d="M890,73L850,13L777,98Z" fill="#a2c6e3" stroke="#a2c6e3" stroke-width="1.51"/><path d="M1000,23L850,13L890,73Z" fill="#a0c2e1" stroke="#a0c2e1" stroke-width="1.51"/><path d="M582,936L653,983L632,931Z" fill="#4f72a2" stroke="#4f72a2" stroke-width="1.51"/><path d="M874,923L951,998L1006,870Z" fill="#255b95" stroke="#255b95" stroke-width="1.51"/><path d="M764,1039L857,1008L750,928Z" fill="#37679c" stroke="#37679c" stroke-width="1.51"/><path d="M396,895L472,883L453,819Z" fill="#6882b0" stroke="#6882b0" stroke-width="1.51"/><path d="M453,819L472,883L535,801Z" fill="#6585b5" stroke="#6585b5" stroke-width="1.51"/><path d="M582,936L567,1024L653,983Z" fill="#5274a3" stroke="#5274a3" stroke-width="1.51"/><path d="M857,1008L951,998L874,923Z" fill="#2a5f98" stroke="#2a5f98" stroke-width="1.51"/><path d="M1038,874L1188,903L1071,788Z" fill="#155598" stroke="#155598" stroke-width="1.51"/><path d="M793,-13L684,11L777,98Z" fill="#aecfe8" stroke="#aecfe8" stroke-width="1.51"/><path d="M1060,129L1000,23L974,130Z" fill="#93b4da" stroke="#93b4da" stroke-width="1.51"/><path d="M1090,15L1000,23L1060,129Z" fill="#95b2da" stroke="#95b2da" stroke-width="1.51"/><path d="M872,-86L793,-13L850,13Z" fill="#aacae5" stroke="#aacae5" stroke-width="1.51"/><path d="M850,13L793,-13L777,98Z" fill="#a9cae6" stroke="#a9cae6" stroke-width="1.51"/><path d="M1268,572L1338,511L1287,493Z" fill="#3471ae" stroke="#3471ae" stroke-width="1.51"/><path d="M1287,493L1367,391L1282,393Z" fill="#4a7bb3" stroke="#4a7bb3" stroke-width="1.51"/><path d="M1356,592L1338,511L1268,572Z" fill="#2c6ba9" stroke="#2c6ba9" stroke-width="1.51"/><path d="M385,313L282,417L391,390Z" fill="#accee6" stroke="#accee6" stroke-width="1.51"/><path d="M463,87L362,234L503,191Z" fill="#c3dbee" stroke="#c3dbee" stroke-width="1.51"/><path d="M463,87L503,191L543,126Z" fill="#c0daec" stroke="#c0daec" stroke-width="1.51"/><path d="M1311,320L1210,395L1282,393Z" fill="#5a87bc" stroke="#5a87bc" stroke-width="1.51"/><path d="M1285,221L1136,178L1155,279Z" fill="#7b99ca" stroke="#7b99ca" stroke-width="1.51"/><path d="M1136,178L1172,123L1105,172Z" fill="#85a3d1" stroke="#85a3d1" stroke-width="1.51"/><path d="M653,983L764,1039L750,928Z" fill="#3f6c9f" stroke="#3f6c9f" stroke-width="1.51"/><path d="M857,1008L875,1074L951,998Z" fill="#295f98" stroke="#295f98" stroke-width="1.51"/><path d="M1339,313L1311,320L1367,391Z" fill="#5e82b3" stroke="#5e82b3" stroke-width="1.51"/><path d="M1278,805L1303,727L1171,715Z" fill="#0f57a1" stroke="#0f57a1" stroke-width="1.51"/><path d="M1278,805L1171,715L1163,779Z" fill="#1159a2" stroke="#1159a2" stroke-width="1.51"/><path d="M334,503L253,634L369,630Z" fill="#8bb3da" stroke="#8bb3da" stroke-width="1.51"/><path d="M231,330L282,417L385,313Z" fill="#b3d3e8" stroke="#b3d3e8" stroke-width="1.51"/><path d="M1165,978L1188,903L1038,874Z" fill="#134b8c" stroke="#134b8c" stroke-width="1.51"/><path d="M555,13L463,87L543,126Z" fill="#c4deee" stroke="#c4deee" stroke-width="1.51"/><path d="M1367,391L1311,320L1282,393Z" fill="#5881b4" stroke="#5881b4" stroke-width="1.51"/><path d="M1303,727L1356,592L1268,572Z" fill="#2062a5" stroke="#2062a5" stroke-width="1.51"/><path d="M1303,727L1377,694L1356,592Z" fill="#18599d" stroke="#18599d" stroke-width="1.51"/><path d="M1188,903L1278,805L1163,779Z" fill="#0d4f96" stroke="#0d4f96" stroke-width="1.51"/><path d="M1311,320L1285,221L1155,279Z" fill="#6f90c3" stroke="#6f90c3" stroke-width="1.51"/><path d="M635,-85L555,13L684,11Z" fill="#c1dced" stroke="#c1dced" stroke-width="1.51"/><path d="M684,11L555,13L696,119Z" fill="#b8d7eb" stroke="#b8d7eb" stroke-width="1.51"/><path d="M1311,320L1339,313L1285,221Z" fill="#6a89bb" stroke="#6a89bb" stroke-width="1.51"/><path d="M1367,391L1287,493L1338,511Z" fill="#4075ad" stroke="#4075ad" stroke-width="1.51"/><path d="M1172,123L1090,15L1060,129Z" fill="#8eaad5" stroke="#8eaad5" stroke-width="1.51"/><path d="M960,-71L872,-86L850,13Z" fill="#a5c6e3" stroke="#a5c6e3" stroke-width="1.51"/><path d="M1181,33L1090,15L1172,123Z" fill="#90a9d4" stroke="#90a9d4" stroke-width="1.51"/><path d="M1495,433L1367,391L1338,511Z" fill="#4270a5" stroke="#4270a5" stroke-width="1.51"/><path d="M331,828L396,895L453,819Z" fill="#6f87b6" stroke="#6f87b6" stroke-width="1.51"/><path d="M470,991L567,1024L582,936Z" fill="#5a78a5" stroke="#5a78a5" stroke-width="1.51"/><path d="M653,983L648,1082L764,1039Z" fill="#446ea0" stroke="#446ea0" stroke-width="1.51"/><path d="M266,714L395,738L369,630Z" fill="#7fa1d1" stroke="#7fa1d1" stroke-width="1.51"/><path d="M951,998L1065,1033L1038,874Z" fill="#1d5592" stroke="#1d5592" stroke-width="1.51"/><path d="M764,1039L875,1074L857,1008Z" fill="#32649a" stroke="#32649a" stroke-width="1.51"/><path d="M470,991L582,936L472,883Z" fill="#5e7aa6" stroke="#5e7aa6" stroke-width="1.51"/><path d="M764,1039L788,1107L875,1074Z" fill="#35659b" stroke="#35659b" stroke-width="1.51"/><path d="M239,527L253,634L334,503Z" fill="#91badd" stroke="#91badd" stroke-width="1.51"/><path d="M282,417L239,527L334,503Z" fill="#9bc4e2" stroke="#9bc4e2" stroke-width="1.51"/><path d="M266,714L331,828L395,738Z" fill="#7c98c9" stroke="#7c98c9" stroke-width="1.51"/><path d="M985,1138L1065,1033L951,998Z" fill="#1f5693" stroke="#1f5693" stroke-width="1.51"/><path d="M253,634L266,714L369,630Z" fill="#86aad5" stroke="#86aad5" stroke-width="1.51"/><path d="M1065,1033L1165,978L1038,874Z" fill="#154f8f" stroke="#154f8f" stroke-width="1.51"/><path d="M1188,903L1249,922L1278,805Z" fill="#0a468a" stroke="#0a468a" stroke-width="1.51"/><path d="M555,13L485,16L463,87Z" fill="#cbe1f0" stroke="#cbe1f0" stroke-width="1.51"/><path d="M345,84L286,186L362,234Z" fill="#cee0f1" stroke="#cee0f1" stroke-width="1.51"/><path d="M486,-80L485,16L555,13Z" fill="#cfe4f1" stroke="#cfe4f1" stroke-width="1.51"/><path d="M354,976L470,991L396,895Z" fill="#697ea9" stroke="#697ea9" stroke-width="1.51"/><path d="M396,895L470,991L472,883Z" fill="#657ca8" stroke="#657ca8" stroke-width="1.51"/><path d="M1495,433L1446,285L1367,391Z" fill="#5375a4" stroke="#5375a4" stroke-width="1.51"/><path d="M1360,813L1377,694L1303,727Z" fill="#0f4f94" stroke="#0f4f94" stroke-width="1.51"/><path d="M1360,813L1303,727L1278,805Z" fill="#0a4d95" stroke="#0a4d95" stroke-width="1.51"/><path d="M567,1119L648,1082L567,1024Z" fill="#5375a3" stroke="#5375a3" stroke-width="1.51"/><path d="M567,1024L648,1082L653,983Z" fill="#4f72a2" stroke="#4f72a2" stroke-width="1.51"/><path d="M960,-71L850,13L1000,23Z" fill="#a2c1e1" stroke="#a2c1e1" stroke-width="1.51"/><path d="M793,-13L764,-93L684,11Z" fill="#b2d2ea" stroke="#b2d2ea" stroke-width="1.51"/><path d="M1090,15L960,-71L1000,23Z" fill="#9eb9dd" stroke="#9eb9dd" stroke-width="1.51"/><path d="M648,1082L788,1107L764,1039Z" fill="#3d6b9f" stroke="#3d6b9f" stroke-width="1.51"/><path d="M985,1138L1093,1092L1065,1033Z" fill="#1a5291" stroke="#1a5291" stroke-width="1.51"/><path d="M1165,978L1249,922L1188,903Z" fill="#0e4587" stroke="#0e4587" stroke-width="1.51"/><path d="M1090,15L1107,-97L960,-71Z" fill="#9bb6dc" stroke="#9bb6dc" stroke-width="1.51"/><path d="M1254,72L1181,33L1172,123Z" fill="#8ba2cf" stroke="#8ba2cf" stroke-width="1.51"/><path d="M1254,72L1172,123L1285,221Z" fill="#829aca" stroke="#829aca" stroke-width="1.51"/><path d="M872,-86L764,-93L793,-13Z" fill="#adcde7" stroke="#adcde7" stroke-width="1.51"/><path d="M154,414L167,531L239,527Z" fill="#a1c6e4" stroke="#a1c6e4" stroke-width="1.51"/><path d="M362,234L231,330L385,313Z" fill="#bdd7ec" stroke="#bdd7ec" stroke-width="1.51"/><path d="M286,186L231,330L362,234Z" fill="#c6dcef" stroke="#c6dcef" stroke-width="1.51"/><path d="M345,84L362,234L463,87Z" fill="#cce0f1" stroke="#cce0f1" stroke-width="1.51"/><path d="M764,-93L635,-85L684,11Z" fill="#b8d6ec" stroke="#b8d6ec" stroke-width="1.51"/><path d="M1376,127L1254,72L1285,221Z" fill="#7f94c2" stroke="#7f94c2" stroke-width="1.51"/><path d="M1362,215L1285,221L1339,313Z" fill="#7089ba" stroke="#7089ba" stroke-width="1.51"/><path d="M1446,285L1339,313L1367,391Z" fill="#5e7ead" stroke="#5e7ead" stroke-width="1.51"/><path d="M1446,285L1362,215L1339,313Z" fill="#6982b0" stroke="#6982b0" stroke-width="1.51"/><path d="M1249,922L1360,813L1278,805Z" fill="#09448a" stroke="#09448a" stroke-width="1.51"/><path d="M395,-29L463,87L485,16Z" fill="#d3e5f2" stroke="#d3e5f2" stroke-width="1.51"/><path d="M395,-29L345,84L463,87Z" fill="#d5e5f4" stroke="#d5e5f4" stroke-width="1.51"/><path d="M331,828L292,888L396,895Z" fill="#7385b3" stroke="#7385b3" stroke-width="1.51"/><path d="M266,714L245,806L331,828Z" fill="#7e96c8" stroke="#7e96c8" stroke-width="1.51"/><path d="M165,704L245,806L266,714Z" fill="#859fcd" stroke="#859fcd" stroke-width="1.51"/><path d="M165,704L266,714L253,634Z" fill="#89a8d4" stroke="#89a8d4" stroke-width="1.51"/><path d="M167,531L253,634L239,527Z" fill="#95bcde" stroke="#95bcde" stroke-width="1.51"/><path d="M245,806L292,888L331,828Z" fill="#788cba" stroke="#788cba" stroke-width="1.51"/><path d="M154,414L239,527L282,417Z" fill="#a4cae6" stroke="#a4cae6" stroke-width="1.51"/><path d="M1165,978L1272,986L1249,922Z" fill="#0b4385" stroke="#0b4385" stroke-width="1.51"/><path d="M1249,922L1389,929L1360,813Z" fill="#093b7c" stroke="#093b7c" stroke-width="1.51"/><path d="M1065,1033L1093,1092L1165,978Z" fill="#144d8d" stroke="#144d8d" stroke-width="1.51"/><path d="M985,1138L951,998L875,1074Z" fill="#255c96" stroke="#255c96" stroke-width="1.51"/><path d="M788,1107L985,1138L875,1074Z" fill="#2b6098" stroke="#2b6098" stroke-width="1.51"/><path d="M487,1094L567,1119L567,1024Z" fill="#5a78a5" stroke="#5a78a5" stroke-width="1.51"/><path d="M292,888L354,976L396,895Z" fill="#6f80ac" stroke="#6f80ac" stroke-width="1.51"/><path d="M487,1094L567,1024L470,991Z" fill="#5e7aa6" stroke="#5e7aa6" stroke-width="1.51"/><path d="M648,1082L567,1119L788,1107Z" fill="#486fa1" stroke="#486fa1" stroke-width="1.51"/><path d="M788,1107L567,1119L985,1138Z" fill="#38689d" stroke="#38689d" stroke-width="1.51"/><path d="M1193,1126L1272,986L1165,978Z" fill="#0d4586" stroke="#0d4586" stroke-width="1.51"/><path d="M231,330L154,414L282,417Z" fill="#b2d2e8" stroke="#b2d2e8" stroke-width="1.51"/><path d="M190,274L154,414L231,330Z" fill="#bddaeb" stroke="#bddaeb" stroke-width="1.51"/><path d="M190,274L231,330L286,186Z" fill="#c8ddef" stroke="#c8ddef" stroke-width="1.51"/><path d="M160,226L190,274L286,186Z" fill="#d0e1f3" stroke="#d0e1f3" stroke-width="1.51"/><path d="M372,1111L487,1094L470,991Z" fill="#657ca8" stroke="#657ca8" stroke-width="1.51"/><path d="M1360,-20L1241,-14L1254,72Z" fill="#8e9dc9" stroke="#8e9dc9" stroke-width="1.51"/><path d="M1488,599L1338,511L1356,592Z" fill="#29639d" stroke="#29639d" stroke-width="1.51"/><path d="M1488,599L1356,592L1377,694Z" fill="#1f5997" stroke="#1f5997" stroke-width="1.51"/><path d="M554,-121L486,-80L555,13Z" fill="#cce3f0" stroke="#cce3f0" stroke-width="1.51"/><path d="M554,-121L555,13L635,-85Z" fill="#c6dfee" stroke="#c6dfee" stroke-width="1.51"/><path d="M1181,33L1107,-97L1090,15Z" fill="#98afd7" stroke="#98afd7" stroke-width="1.51"/><path d="M960,-71L1107,-97L872,-86Z" fill="#a0bddf" stroke="#a0bddf" stroke-width="1.51"/><path d="M872,-86L1151,-113L764,-93Z" fill="#a3c2e1" stroke="#a3c2e1" stroke-width="1.51"/><path d="M1151,-113L1107,-97L1181,33Z" fill="#97acd6" stroke="#97acd6" stroke-width="1.51"/><path d="M1241,-14L1181,33L1254,72Z" fill="#90a3cf" stroke="#90a3cf" stroke-width="1.51"/><path d="M131,624L165,704L253,634Z" fill="#8eafd8" stroke="#8eafd8" stroke-width="1.51"/><path d="M245,806L182,927L292,888Z" fill="#7989b4" stroke="#7989b4" stroke-width="1.51"/><path d="M131,624L253,634L167,531Z" fill="#94b8dc" stroke="#94b8dc" stroke-width="1.51"/><path d="M1376,127L1285,221L1362,215Z" fill="#788cbb" stroke="#788cbb" stroke-width="1.51"/><path d="M486,-80L395,-29L485,16Z" fill="#d4e6f3" stroke="#d4e6f3" stroke-width="1.51"/><path d="M183,115L160,226L286,186Z" fill="#d6e5f5" stroke="#d6e5f5" stroke-width="1.51"/><path d="M486,-80L367,-90L395,-29Z" fill="#d9e8f5" stroke="#d9e8f5" stroke-width="1.51"/><path d="M764,-93L554,-121L635,-85Z" fill="#bddaed" stroke="#bddaed" stroke-width="1.51"/><path d="M1151,-113L554,-121L764,-93Z" fill="#abcbe6" stroke="#abcbe6" stroke-width="1.51"/><path d="M1494,229L1376,127L1362,215Z" fill="#7485b1" stroke="#7485b1" stroke-width="1.51"/><path d="M1470,704L1488,599L1377,694Z" fill="#185190" stroke="#185190" stroke-width="1.51"/><path d="M1470,704L1377,694L1360,813Z" fill="#0f4b8e" stroke="#0f4b8e" stroke-width="1.51"/><path d="M1508,824L1470,704L1360,813Z" fill="#0a4184" stroke="#0a4184" stroke-width="1.51"/><path d="M1509,476L1495,433L1338,511Z" fill="#3b699e" stroke="#3b699e" stroke-width="1.51"/><path d="M83,568L131,624L167,531Z" fill="#9abedf" stroke="#9abedf" stroke-width="1.51"/><path d="M1488,599L1509,476L1338,511Z" fill="#30639a" stroke="#30639a" stroke-width="1.51"/><path d="M1107,-97L1151,-113L872,-86Z" fill="#9cb7dc" stroke="#9cb7dc" stroke-width="1.51"/><path d="M1241,-14L1151,-113L1181,33Z" fill="#95a8d3" stroke="#95a8d3" stroke-width="1.51"/><path d="M1256,-72L1151,-113L1241,-14Z" fill="#93a6d0" stroke="#93a6d0" stroke-width="1.51"/><path d="M1272,986L1340,981L1249,922Z" fill="#093e7f" stroke="#093e7f" stroke-width="1.51"/><path d="M1276,1105L1340,981L1272,986Z" fill="#083d7e" stroke="#083d7e" stroke-width="1.51"/><path d="M240,61L286,186L345,84Z" fill="#d7e6f5" stroke="#d7e6f5" stroke-width="1.51"/><path d="M190,274L81,367L154,414Z" fill="#bedaec" stroke="#bedaec" stroke-width="1.51"/><path d="M55,474L83,568L167,531Z" fill="#a3c6e3" stroke="#a3c6e3" stroke-width="1.51"/><path d="M1340,981L1389,929L1249,922Z" fill="#093a7a" stroke="#093a7a" stroke-width="1.51"/><path d="M292,888L293,1036L354,976Z" fill="#7182ac" stroke="#7182ac" stroke-width="1.51"/><path d="M354,976L372,1111L470,991Z" fill="#6a7eaa" stroke="#6a7eaa" stroke-width="1.51"/><path d="M165,704L171,828L245,806Z" fill="#849bca" stroke="#849bca" stroke-width="1.51"/><path d="M56,796L171,828L165,704Z" fill="#899dcc" stroke="#899dcc" stroke-width="1.51"/><path d="M1093,1092L1193,1126L1165,978Z" fill="#11498a" stroke="#11498a" stroke-width="1.51"/><path d="M985,1138L1193,1126L1093,1092Z" fill="#154f8f" stroke="#154f8f" stroke-width="1.51"/><path d="M249,-30L240,61L345,84Z" fill="#e0ecf8" stroke="#e0ecf8" stroke-width="1.51"/><path d="M1360,-20L1256,-72L1241,-14Z" fill="#909eca" stroke="#909eca" stroke-width="1.51"/><path d="M131,624L33,722L165,704Z" fill="#91add7" stroke="#91add7" stroke-width="1.51"/><path d="M55,474L167,531L154,414Z" fill="#a8cbe6" stroke="#a8cbe6" stroke-width="1.51"/><path d="M1509,476L1540,416L1495,433Z" fill="#416da0" stroke="#416da0" stroke-width="1.51"/><path d="M1495,433L1547,322L1446,285Z" fill="#5877a4" stroke="#5877a4" stroke-width="1.51"/><path d="M1446,285L1494,229L1362,215Z" fill="#6c7fab" stroke="#6c7fab" stroke-width="1.51"/><path d="M1555,489L1540,416L1509,476Z" fill="#3d6a9f" stroke="#3d6a9f" stroke-width="1.51"/><path d="M1555,489L1509,476L1488,599Z" fill="#31649a" stroke="#31649a" stroke-width="1.51"/><path d="M1376,127L1360,-20L1254,72Z" fill="#8796c1" stroke="#8796c1" stroke-width="1.51"/><path d="M1547,322L1494,229L1446,285Z" fill="#657ca8" stroke="#657ca8" stroke-width="1.51"/><path d="M182,927L293,1036L292,888Z" fill="#7584ae" stroke="#7584ae" stroke-width="1.51"/><path d="M487,1094L372,1111L567,1119Z" fill="#627ba7" stroke="#627ba7" stroke-width="1.51"/><path d="M42,296L81,367L190,274Z" fill="#c8e0ef" stroke="#c8e0ef" stroke-width="1.51"/><path d="M240,61L183,115L286,186Z" fill="#dae8f5" stroke="#dae8f5" stroke-width="1.51"/><path d="M1578,607L1488,599L1592,672Z" fill="#1f5693" stroke="#1f5693" stroke-width="1.51"/><path d="M1578,607L1555,489L1488,599Z" fill="#285e97" stroke="#285e97" stroke-width="1.51"/><path d="M42,296L190,274L160,226Z" fill="#cfe2f1" stroke="#cfe2f1" stroke-width="1.51"/><path d="M395,-29L249,-30L345,84Z" fill="#e0ecf7" stroke="#e0ecf7" stroke-width="1.51"/><path d="M240,61L130,3L183,115Z" fill="#e4eef9" stroke="#e4eef9" stroke-width="1.51"/><path d="M554,-121L367,-90L486,-80Z" fill="#d3e6f3" stroke="#d3e6f3" stroke-width="1.51"/><path d="M293,1036L372,1111L354,976Z" fill="#7081ac" stroke="#7081ac" stroke-width="1.51"/><path d="M567,1119L260,1124L985,1138Z" fill="#5174a3" stroke="#5174a3" stroke-width="1.51"/><path d="M1193,1126L1276,1105L1272,986Z" fill="#0a4184" stroke="#0a4184" stroke-width="1.51"/><path d="M1465,1025L1508,894L1389,929Z" fill="#08306b" stroke="#08306b" stroke-width="1.51"/><path d="M171,828L182,927L245,806Z" fill="#7d8eba" stroke="#7d8eba" stroke-width="1.51"/><path d="M49,891L182,927L171,828Z" fill="#7f8cb5" stroke="#7f8cb5" stroke-width="1.51"/><path d="M81,367L55,474L154,414Z" fill="#b4d4ea" stroke="#b4d4ea" stroke-width="1.51"/><path d="M83,568L33,722L131,624Z" fill="#98b6db" stroke="#98b6db" stroke-width="1.51"/><path d="M1689,331L1547,322L1540,416Z" fill="#5676a4" stroke="#5676a4" stroke-width="1.51"/><path d="M1540,416L1547,322L1495,433Z" fill="#4e72a2" stroke="#4e72a2" stroke-width="1.51"/><path d="M1491,86L1360,-20L1376,127Z" fill="#828db5" stroke="#828db5" stroke-width="1.51"/><path d="M1491,86L1376,127L1494,229Z" fill="#7785ae" stroke="#7785ae" stroke-width="1.51"/><path d="M1389,929L1508,824L1360,813Z" fill="#093877" stroke="#093877" stroke-width="1.51"/><path d="M1508,894L1508,824L1389,929Z" fill="#08326e" stroke="#08326e" stroke-width="1.51"/><path d="M1592,672L1488,599L1470,704Z" fill="#195291" stroke="#195291" stroke-width="1.51"/><path d="M1689,331L1596,193L1547,322Z" fill="#647ca8" stroke="#647ca8" stroke-width="1.51"/><path d="M367,-90L249,-30L395,-29Z" fill="#e0ecf8" stroke="#e0ecf8" stroke-width="1.51"/><path d="M1508,824L1592,672L1470,704Z" fill="#104789" stroke="#104789" stroke-width="1.51"/><path d="M1465,1025L1389,929L1340,981Z" fill="#083370" stroke="#083370" stroke-width="1.51"/><path d="M1667,500L1540,416L1555,489Z" fill="#3c699e" stroke="#3c699e" stroke-width="1.51"/><path d="M1608,831L1592,672L1508,824Z" fill="#0a4285" stroke="#0a4285" stroke-width="1.51"/><path d="M61,94L72,213L183,115Z" fill="#e0ecf8" stroke="#e0ecf8" stroke-width="1.51"/><path d="M183,115L72,213L160,226Z" fill="#dae8f6" stroke="#dae8f6" stroke-width="1.51"/><path d="M-48,389L-23,467L55,474Z" fill="#b6d5eb" stroke="#b6d5eb" stroke-width="1.51"/><path d="M72,213L42,296L160,226Z" fill="#d5e5f4" stroke="#d5e5f4" stroke-width="1.51"/><path d="M1562,98L1491,86L1494,229Z" fill="#7885ae" stroke="#7885ae" stroke-width="1.51"/><path d="M-23,467L83,568L55,474Z" fill="#aacce6" stroke="#aacce6" stroke-width="1.51"/><path d="M-16,711L33,722L83,568Z" fill="#98b3da" stroke="#98b3da" stroke-width="1.51"/><path d="M33,722L56,796L165,704Z" fill="#8fa5d0" stroke="#8fa5d0" stroke-width="1.51"/><path d="M367,-90L276,-98L249,-30Z" fill="#e3eef9" stroke="#e3eef9" stroke-width="1.51"/><path d="M249,-30L130,3L240,61Z" fill="#e8f1fa" stroke="#e8f1fa" stroke-width="1.51"/><path d="M554,-121L276,-98L367,-90Z" fill="#dbe9f6" stroke="#dbe9f6" stroke-width="1.51"/><path d="M1276,1105L1380,1094L1340,981Z" fill="#093979" stroke="#093979" stroke-width="1.51"/><path d="M1193,1126L1380,1094L1276,1105Z" fill="#093e80" stroke="#093e80" stroke-width="1.51"/><path d="M69,984L174,1017L182,927Z" fill="#7d88b0" stroke="#7d88b0" stroke-width="1.51"/><path d="M182,927L174,1017L293,1036Z" fill="#7886ae" stroke="#7886ae" stroke-width="1.51"/><path d="M293,1036L260,1124L372,1111Z" fill="#7282ac" stroke="#7282ac" stroke-width="1.51"/><path d="M1256,-72L1373,-96L1151,-113Z" fill="#92a1cd" stroke="#92a1cd" stroke-width="1.51"/><path d="M1360,-20L1373,-96L1256,-72Z" fill="#8e9ac3" stroke="#8e9ac3" stroke-width="1.51"/><path d="M1504,1L1373,-96L1360,-20Z" fill="#8891b7" stroke="#8891b7" stroke-width="1.51"/><path d="M181,1106L260,1124L293,1036Z" fill="#7684ae" stroke="#7684ae" stroke-width="1.51"/><path d="M372,1111L260,1124L567,1119Z" fill="#6a7eaa" stroke="#6a7eaa" stroke-width="1.51"/><path d="M1508,894L1608,831L1508,824Z" fill="#093776" stroke="#093776" stroke-width="1.51"/><path d="M1380,1094L1465,1025L1340,981Z" fill="#093471" stroke="#093471" stroke-width="1.51"/><path d="M-48,389L55,474L81,367Z" fill="#bbd8ec" stroke="#bbd8ec" stroke-width="1.51"/><path d="M-48,389L81,367L42,296Z" fill="#c7e0ef" stroke="#c7e0ef" stroke-width="1.51"/><path d="M1491,86L1504,1L1360,-20Z" fill="#848db2" stroke="#848db2" stroke-width="1.51"/><path d="M1547,322L1596,193L1494,229Z" fill="#6a7faa" stroke="#6a7faa" stroke-width="1.51"/><path d="M1667,500L1555,489L1578,607Z" fill="#2f6299" stroke="#2f6299" stroke-width="1.51"/><path d="M-53,181L-52,328L42,296Z" fill="#d7e7f5" stroke="#d7e7f5" stroke-width="1.51"/><path d="M150,-103L130,3L249,-30Z" fill="#ebf3fb" stroke="#ebf3fb" stroke-width="1.51"/><path d="M33,722L-38,806L56,796Z" fill="#91a3ce" stroke="#91a3ce" stroke-width="1.51"/><path d="M56,796L49,891L171,828Z" fill="#8695bf" stroke="#8695bf" stroke-width="1.51"/><path d="M-63,620L-16,711L83,568Z" fill="#9ebadd" stroke="#9ebadd" stroke-width="1.51"/><path d="M174,1017L181,1106L293,1036Z" fill="#7886ae" stroke="#7886ae" stroke-width="1.51"/><path d="M-38,806L49,891L56,796Z" fill="#8c99c3" stroke="#8c99c3" stroke-width="1.51"/><path d="M1683,612L1667,500L1578,607Z" fill="#275e96" stroke="#275e96" stroke-width="1.51"/><path d="M1683,612L1578,607L1592,672Z" fill="#1e5693" stroke="#1e5693" stroke-width="1.51"/><path d="M1596,193L1562,98L1494,229Z" fill="#7483ad" stroke="#7483ad" stroke-width="1.51"/><path d="M1465,1025L1554,934L1508,894Z" fill="#08306b" stroke="#08306b" stroke-width="1.51"/><path d="M130,3L61,94L183,115Z" fill="#e6f0f9" stroke="#e6f0f9" stroke-width="1.51"/><path d="M1562,98L1504,1L1491,86Z" fill="#808ab1" stroke="#808ab1" stroke-width="1.51"/><path d="M1554,934L1608,831L1508,894Z" fill="#08326e" stroke="#08326e" stroke-width="1.51"/><path d="M-23,467L-63,620L83,568Z" fill="#a6c7e4" stroke="#a6c7e4" stroke-width="1.51"/><path d="M-52,328L-48,389L42,296Z" fill="#cbe2f0" stroke="#cbe2f0" stroke-width="1.51"/><path d="M47,1111L181,1106L174,1017Z" fill="#7d89b0" stroke="#7d89b0" stroke-width="1.51"/><path d="M1674,722L1683,612L1592,672Z" fill="#175090" stroke="#175090" stroke-width="1.51"/><path d="M49,891L69,984L182,927Z" fill="#808ab1" stroke="#808ab1" stroke-width="1.51"/><path d="M-2,989L69,984L49,891Z" fill="#848db2" stroke="#848db2" stroke-width="1.51"/><path d="M-16,711L-38,806L33,722Z" fill="#95a8d2" stroke="#95a8d2" stroke-width="1.51"/><path d="M-137,510L-63,620L-23,467Z" fill="#a9c9e5" stroke="#a9c9e5" stroke-width="1.51"/><path d="M-48,389L-137,510L-23,467Z" fill="#b4d3ea" stroke="#b4d3ea" stroke-width="1.51"/><path d="M-53,181L42,296L72,213Z" fill="#dce9f6" stroke="#dce9f6" stroke-width="1.51"/><path d="M1698,769L1674,722L1608,831Z" fill="#0b4285" stroke="#0b4285" stroke-width="1.51"/><path d="M1608,831L1674,722L1592,672Z" fill="#0f4688" stroke="#0f4688" stroke-width="1.51"/><path d="M1667,500L1697,411L1540,416Z" fill="#416da0" stroke="#416da0" stroke-width="1.51"/><path d="M1596,193L1672,90L1562,98Z" fill="#7986af" stroke="#7986af" stroke-width="1.51"/><path d="M1683,612L1697,411L1667,500Z" fill="#34659b" stroke="#34659b" stroke-width="1.51"/><path d="M1697,411L1689,331L1540,416Z" fill="#4f73a2" stroke="#4f73a2" stroke-width="1.51"/><path d="M1554,934L1688,919L1608,831Z" fill="#08316c" stroke="#08316c" stroke-width="1.51"/><path d="M1465,1025L1556,1028L1554,934Z" fill="#08306b" stroke="#08306b" stroke-width="1.51"/><path d="M1380,1094L1498,1087L1465,1025Z" fill="#08306b" stroke="#08306b" stroke-width="1.51"/><path d="M1606,1091L1498,1087L1380,1094Z" fill="#08306b" stroke="#08306b" stroke-width="1.51"/><path d="M-115,830L-38,806L-164,733Z" fill="#91a1cd" stroke="#91a1cd" stroke-width="1.51"/><path d="M61,94L-53,181L72,213Z" fill="#e3eef9" stroke="#e3eef9" stroke-width="1.51"/><path d="M130,3L53,-9L61,94Z" fill="#eef5fc" stroke="#eef5fc" stroke-width="1.51"/><path d="M276,-98L150,-103L249,-30Z" fill="#e8f1fa" stroke="#e8f1fa" stroke-width="1.51"/><path d="M554,-121L150,-103L276,-98Z" fill="#e1ecf8" stroke="#e1ecf8" stroke-width="1.51"/><path d="M1373,-96L1442,-140L1151,-113Z" fill="#8e9ac4" stroke="#8e9ac4" stroke-width="1.51"/><path d="M1151,-113L1442,-140L554,-121Z" fill="#9bb6dc" stroke="#9bb6dc" stroke-width="1.51"/><path d="M1504,1L1442,-140L1373,-96Z" fill="#878eb3" stroke="#878eb3" stroke-width="1.51"/><path d="M1541,-39L1442,-140L1504,1Z" fill="#878eb3" stroke="#878eb3" stroke-width="1.51"/><path d="M1541,-39L1504,1L1562,98Z" fill="#858db3" stroke="#858db3" stroke-width="1.51"/><path d="M1498,1087L1556,1028L1465,1025Z" fill="#08306b" stroke="#08306b" stroke-width="1.51"/><path d="M1644,-40L1541,-39L1562,98Z" fill="#868eb3" stroke="#868eb3" stroke-width="1.51"/><path d="M63,-109L53,-9L130,3Z" fill="#f2f7fd" stroke="#f2f7fd" stroke-width="1.51"/><path d="M1683,612L1698,769L1697,411Z" fill="#235a95" stroke="#235a95" stroke-width="1.51"/><path d="M1674,722L1698,769L1683,612Z" fill="#134c8c" stroke="#134c8c" stroke-width="1.51"/><path d="M1688,919L1698,769L1608,831Z" fill="#093878" stroke="#093878" stroke-width="1.51"/><path d="M1689,331L1673,174L1596,193Z" fill="#6d7fab" stroke="#6d7fab" stroke-width="1.51"/><path d="M-44,77L-53,181L61,94Z" fill="#eaf2fb" stroke="#eaf2fb" stroke-width="1.51"/><path d="M-52,328L-117,370L-48,389Z" fill="#c6dfef" stroke="#c6dfef" stroke-width="1.51"/><path d="M-133,333L-117,370L-52,328Z" fill="#cae1ef" stroke="#cae1ef" stroke-width="1.51"/><path d="M-115,830L-68,892L-38,806Z" fill="#8c97c1" stroke="#8c97c1" stroke-width="1.51"/><path d="M-68,892L-2,989L49,891Z" fill="#878eb3" stroke="#878eb3" stroke-width="1.51"/><path d="M69,984L47,1111L174,1017Z" fill="#808ab1" stroke="#808ab1" stroke-width="1.51"/><path d="M-117,370L-137,510L-48,389Z" fill="#bad7ec" stroke="#bad7ec" stroke-width="1.51"/><path d="M-38,806L-68,892L49,891Z" fill="#8a95bc" stroke="#8a95bc" stroke-width="1.51"/><path d="M1673,174L1672,90L1596,193Z" fill="#7684ae" stroke="#7684ae" stroke-width="1.51"/><path d="M1541,-39L1598,-97L1442,-140Z" fill="#878eb3" stroke="#878eb3" stroke-width="1.51"/><path d="M1689,331L1672,90L1673,174Z" fill="#7182ac" stroke="#7182ac" stroke-width="1.51"/><path d="M1687,-89L1672,90L1689,331Z" fill="#7a87af" stroke="#7a87af" stroke-width="1.51"/><path d="M-129,181L-133,333L-52,328Z" fill="#d5e7f3" stroke="#d5e7f3" stroke-width="1.51"/><path d="M53,-9L-44,77L61,94Z" fill="#f0f6fd" stroke="#f0f6fd" stroke-width="1.51"/><path d="M-61,-25L-44,77L53,-9Z" fill="#f6faff" stroke="#f6faff" stroke-width="1.51"/><path d="M-38,806L-16,711L-164,733Z" fill="#94a7d1" stroke="#94a7d1" stroke-width="1.51"/><path d="M-117,370L-133,333L-137,510Z" fill="#bedaed" stroke="#bedaed" stroke-width="1.51"/><path d="M-129,181L-52,328L-53,181Z" fill="#deeaf7" stroke="#deeaf7" stroke-width="1.51"/><path d="M1674,970L1688,919L1554,934Z" fill="#08306b" stroke="#08306b" stroke-width="1.51"/><path d="M1674,970L1554,934L1556,1028Z" fill="#08306b" stroke="#08306b" stroke-width="1.51"/><path d="M-140,-141L63,-109L150,-103Z" fill="#f6faff" stroke="#f6faff" stroke-width="1.51"/><path d="M150,-103L63,-109L130,3Z" fill="#eff6fd" stroke="#eff6fd" stroke-width="1.51"/><path d="M-137,510L-156,592L-63,620Z" fill="#a3c3e2" stroke="#a3c3e2" stroke-width="1.51"/><path d="M-133,333L-156,592L-137,510Z" fill="#b1d0e9" stroke="#b1d0e9" stroke-width="1.51"/><path d="M-38,1135L47,1111L-2,989Z" fill="#878eb3" stroke="#878eb3" stroke-width="1.51"/><path d="M-2,989L47,1111L69,984Z" fill="#848db2" stroke="#848db2" stroke-width="1.51"/><path d="M181,1106L47,1111L260,1124Z" fill="#7b88b0" stroke="#7b88b0" stroke-width="1.51"/><path d="M1606,1091L1674,970L1556,1028Z" fill="#08306b" stroke="#08306b" stroke-width="1.51"/><path d="M-119,1035L-38,1135L-2,989Z" fill="#878eb3" stroke="#878eb3" stroke-width="1.51"/><path d="M-164,733L-16,711L-63,620Z" fill="#99b1d9" stroke="#99b1d9" stroke-width="1.51"/><path d="M1498,1087L1606,1091L1556,1028Z" fill="#08306b" stroke="#08306b" stroke-width="1.51"/><path d="M1193,1126L1606,1091L1380,1094Z" fill="#093471" stroke="#093471" stroke-width="1.51"/><path d="M1644,-40L1598,-97L1541,-39Z" fill="#878eb3" stroke="#878eb3" stroke-width="1.51"/><path d="M-129,105L-53,181L-44,77Z" fill="#eaf2fb" stroke="#eaf2fb" stroke-width="1.51"/><path d="M-129,105L-129,181L-53,181Z" fill="#e6f0fa" stroke="#e6f0fa" stroke-width="1.51"/><path d="M-133,333L-172,10L-156,592Z" fill="#d0e4f1" stroke="#d0e4f1" stroke-width="1.51"/><path d="M1672,90L1644,-40L1562,98Z" fill="#818bb1" stroke="#818bb1" stroke-width="1.51"/><path d="M-156,592L-164,733L-63,620Z" fill="#9cb8dc" stroke="#9cb8dc" stroke-width="1.51"/><path d="M-56,-99L-61,-25L53,-9Z" fill="#f7fbff" stroke="#f7fbff" stroke-width="1.51"/><path d="M-172,10L-129,105L-44,77Z" fill="#f0f6fc" stroke="#f0f6fc" stroke-width="1.51"/><path d="M-129,181L-172,10L-133,333Z" fill="#e4eef9" stroke="#e4eef9" stroke-width="1.51"/><path d="M-156,592L-172,10L-164,733Z" fill="#b6d4eb" stroke="#b6d4eb" stroke-width="1.51"/><path d="M1606,1091L1677,1080L1674,970Z" fill="#08306b" stroke="#08306b" stroke-width="1.51"/><path d="M1674,970L1677,1080L1688,919Z" fill="#08306b" stroke="#08306b" stroke-width="1.51"/><path d="M-119,1035L-2,989L-68,892Z" fill="#878eb3" stroke="#878eb3" stroke-width="1.51"/><path d="M47,1111L-38,1135L260,1124Z" fill="#818bb1" stroke="#818bb1" stroke-width="1.51"/><path d="M260,1124L-38,1135L985,1138Z" fill="#6a7eaa" stroke="#6a7eaa" stroke-width="1.51"/><path d="M-168,912L-68,892L-115,830Z" fill="#8992b8" stroke="#8992b8" stroke-width="1.51"/><path d="M1672,90L1687,-89L1644,-40Z" fill="#878eb3" stroke="#878eb3" stroke-width="1.51"/><path d="M1644,-40L1687,-89L1598,-97Z" fill="#878eb3" stroke="#878eb3" stroke-width="1.51"/><path d="M1598,-97L1687,-89L1442,-140Z" fill="#878eb3" stroke="#878eb3" stroke-width="1.51"/><path d="M1697,411L1687,-89L1689,331Z" fill="#6f80ac" stroke="#6f80ac" stroke-width="1.51"/><path d="M-61,-25L-172,10L-44,77Z" fill="#f5f9ff" stroke="#f5f9ff" stroke-width="1.51"/><path d="M63,-109L-56,-99L53,-9Z" fill="#f6faff" stroke="#f6faff" stroke-width="1.51"/><path d="M-164,733L-168,912L-115,830Z" fill="#8e9bc4" stroke="#8e9bc4" stroke-width="1.51"/><path d="M-168,912L-119,1035L-68,892Z" fill="#878eb3" stroke="#878eb3" stroke-width="1.51"/><path d="M-140,-141L-172,10L-61,-25Z" fill="#f7fbff" stroke="#f7fbff" stroke-width="1.51"/><path d="M-129,105L-172,10L-129,181Z" fill="#ecf4fc" stroke="#ecf4fc" stroke-width="1.51"/><path d="M-164,733L-172,10L-168,912Z" fill="#a6c7e4" stroke="#a6c7e4" stroke-width="1.51"/><path d="M-168,912L-159,1072L-119,1035Z" fill="#878eb3" stroke="#878eb3" stroke-width="1.51"/><path d="M-119,1035L-159,1072L-38,1135Z" fill="#878eb3" stroke="#878eb3" stroke-width="1.51"/><path d="M-56,-99L-140,-141L-61,-25Z" fill="#f7fbff" stroke="#f7fbff" stroke-width="1.51"/><path d="M63,-109L-140,-141L-56,-99Z" fill="#f7fbff" stroke="#f7fbff" stroke-width="1.51"/><path d="M554,-121L-140,-141L150,-103Z" fill="#eaf2fb" stroke="#eaf2fb" stroke-width="1.51"/><path d="M1442,-140L-140,-141L554,-121Z" fill="#c1dced" stroke="#c1dced" stroke-width="1.51"/></svg>